<?xml version="1.0" encoding="utf-8"?>
<!DOCTYPE svg PUBLIC "-//W3C//DTD SVG 1.1//EN" "http://www.w3.org/Graphics/SVG/1.1/DTD/svg11.dtd">
<svg version="1.1" xmlns="http://www.w3.org/2000/svg" width="250px" height="120px" viewBox="0 0 250 120">
<path d="M79.755,95.442l-14.378-0.005l-0.265-9.848c-7.263,9.932-14.09,11.926-24.463,11.926c-25.515,0-39.109-18.857-39.109-45.509
	c0-26.654,14.989-41.944,40.502-41.944c18.602,0,33.911,6.261,36.175,27.296L61.79,37.484c-0.992-8.523-13.969-14.701-19.475-14.701
	c-14.134,0-23.582,15.648-23.582,29.223c0,12.601,7.972,32.382,23.582,30.669c11.919-1.309,19.214-7.07,21.697-18.592L43.508,64.39
	V49.521h36.247V95.442z M83.781,10.063h25.055l16.166,61.482l16.431-61.482h25.174l0.265,85.38h-17.225l-0.266-56.494l-15.65,56.494
	h-16.416l-17.226-57.554l1.06,57.554H84.044L83.781,10.063L83.781,10.063z M229.16,36.563c-2.182-8.084-9.081-14.311-20.141-14.311
	c-19.128,0-20.406,20.552-20.406,33.347c0,9.32,6.81,26.016,21.996,26.016c10.861,0,17.316-5.301,18.285-14.84h17.756
	c-1.135,18.385-15.723,30.74-35.756,30.74c-28.646,0-39.936-23.197-39.936-46.567c0-23.984,13.41-42.741,40.182-42.741
	c19.605,0.117,33.371,9.831,35.246,28.091l-17.235,0.265H229.16z"/>
<path d="M12.941,112.543v-3.346H9.708c-0.577,0-0.954-0.067-1.128-0.207c-0.176-0.139-0.263-0.346-0.263-0.619
	c0-0.561,0.395-0.84,1.179-0.84h3.716c0.659,0.006,1.092,0.098,1.299,0.273c0.208,0.176,0.312,0.578,0.312,1.213v3.386
	c0,0.491-0.053,0.825-0.157,0.996c-0.104,0.174-0.392,0.415-0.865,0.733s-1.175,0.648-2.103,0.996
	c-0.929,0.351-1.957,0.524-3.085,0.524c-2.375,0-4.221-0.726-5.54-2.173c-1.319-1.448-1.978-3.367-1.978-5.756
	c0-2.396,0.657-4.338,1.967-5.826s3.14-2.23,5.489-2.23c1.323,0,2.432,0.25,3.331,0.752c0.899,0.503,1.548,1.107,1.946,1.813
	c0.399,0.707,0.598,1.245,0.598,1.618c0,0.604-0.325,0.907-0.975,0.907c-0.316,0-0.638-0.309-0.967-0.928
	c-0.483-0.914-1.063-1.559-1.739-1.936c-0.676-0.376-1.458-0.564-2.351-0.564c-1.628,0-2.915,0.572-3.858,1.713
	c-0.943,1.143-1.417,2.658-1.417,4.55c0,2.003,0.477,3.57,1.431,4.698c0.954,1.127,2.309,1.691,4.064,1.691
	C10.125,113.982,11.567,113.504,12.941,112.543L12.941,112.543z M17.686,114.107v-8.991c0-0.479,0.066-0.795,0.197-0.95
	c0.131-0.154,0.327-0.23,0.589-0.23c0.208,0,0.386,0.066,0.532,0.195c0.148,0.131,0.221,0.457,0.221,0.985v0.865
	c0.496-0.829,0.931-1.378,1.299-1.646c0.369-0.268,0.801-0.4,1.3-0.4c0.523,0,1.009,0.123,1.457,0.369
	c0.445,0.246,0.67,0.545,0.67,0.896c0,0.246-0.081,0.451-0.242,0.617c-0.161,0.165-0.318,0.248-0.473,0.248
	c-0.134,0-0.344-0.053-0.624-0.159s-0.57-0.157-0.867-0.157c-0.765,0-1.333,0.358-1.707,1.077c-0.371,0.717-0.558,1.942-0.558,3.673
	v4.063c0,0.726-0.297,1.087-0.886,1.087c-0.337,0-0.572-0.105-0.706-0.315C17.753,115.121,17.686,114.714,17.686,114.107z
	 M32.861,110.145h-6.416c0.034,1.354,0.354,2.379,0.962,3.077c0.609,0.697,1.401,1.048,2.383,1.048c0.784,0,1.38-0.17,1.787-0.508
	c0.407-0.337,0.814-0.84,1.223-1.507c0.242-0.374,0.496-0.56,0.766-0.56c0.187,0,0.35,0.07,0.483,0.212
	c0.133,0.14,0.201,0.306,0.201,0.496c0,0.528-0.381,1.2-1.143,2.019s-1.896,1.229-3.398,1.229c-1.618,0-2.871-0.527-3.761-1.583
	c-0.888-1.056-1.333-2.487-1.333-4.296c0-1.778,0.443-3.196,1.333-4.252c0.891-1.057,2.131-1.584,3.721-1.584
	c1.59,0,2.786,0.529,3.585,1.588c0.799,1.059,1.198,2.199,1.198,3.422c0,0.322-0.083,0.604-0.248,0.844
	C34.042,110.026,33.593,110.145,32.861,110.145z M26.467,108.858h6.152c-0.047-1.139-0.346-2.015-0.897-2.624
	c-0.549-0.613-1.255-0.918-2.114-0.918c-0.827,0-1.528,0.303-2.105,0.906C26.927,106.827,26.582,107.707,26.467,108.858z
	 M42.003,113.805c-1.196,1.231-2.605,1.846-4.229,1.846c-1.066,0-1.912-0.309-2.533-0.924c-0.622-0.615-0.931-1.378-0.931-2.287
	c0-0.893,0.242-1.578,0.725-2.049s0.995-0.786,1.537-0.945c0.539-0.158,1.448-0.359,2.725-0.605
	c1.276-0.246,2.124-0.457,2.548-0.633c0-1.139-0.191-1.903-0.575-2.298c-0.384-0.394-1.005-0.589-1.864-0.589
	c-1.604,0-2.607,0.518-3.01,1.549c-0.146,0.401-0.286,0.653-0.418,0.754c-0.131,0.102-0.288,0.152-0.468,0.152
	c-0.221,0-0.411-0.076-0.568-0.231c-0.159-0.155-0.237-0.346-0.237-0.57c0-0.695,0.379-1.376,1.139-2.04
	c0.759-0.663,1.906-0.996,3.445-0.996c1.283,0,2.239,0.193,2.871,0.579c0.63,0.388,1.035,0.896,1.213,1.53
	c0.178,0.632,0.267,1.469,0.267,2.513l-0.062,3.525c0,0.583,0.083,1.157,0.248,1.722c0.163,0.563,0.246,0.931,0.246,1.106
	c0,0.183-0.087,0.353-0.263,0.507c-0.176,0.154-0.375,0.233-0.604,0.233C42.698,115.648,42.298,115.034,42.003,113.805
	L42.003,113.805z M41.863,109.539c-0.437,0.197-1.257,0.42-2.464,0.666c-1.204,0.246-1.969,0.44-2.296,0.58
	c-0.324,0.143-0.566,0.363-0.723,0.664c-0.159,0.301-0.237,0.59-0.237,0.865c0,0.502,0.18,0.939,0.543,1.313
	c0.362,0.371,0.863,0.557,1.501,0.557c0.771,0,1.49-0.19,2.156-0.572c0.666-0.381,1.083-0.873,1.259-1.475
	C41.774,111.536,41.863,110.669,41.863,109.539z M47.15,104.198v-1.897c0-0.752,0.072-1.236,0.216-1.45
	c0.145-0.214,0.367-0.319,0.67-0.319c0.254,0,0.471,0.084,0.645,0.252c0.174,0.17,0.263,0.641,0.263,1.414v2.004H49.9
	c0.738,0,1.106,0.225,1.106,0.674c0,0.457-0.35,0.685-1.047,0.685h-1.016v6.653c0,0.807,0.087,1.326,0.261,1.556
	c0.176,0.227,0.447,0.343,0.816,0.343c0.053,0,0.231-0.021,0.535-0.063c0.303-0.043,0.473-0.064,0.513-0.064
	c0.416,0,0.624,0.221,0.624,0.664c0,0.619-0.674,0.928-2.025,0.928c-0.685,0-1.276-0.171-1.772-0.517
	c-0.496-0.343-0.746-1.245-0.746-2.698v-6.802h-0.674c-0.536,0-0.806-0.228-0.806-0.685c0-0.449,0.322-0.674,0.967-0.674h0.515
	V104.198z M59.945,110.145H53.53c0.034,1.354,0.354,2.379,0.963,3.077c0.608,0.697,1.401,1.048,2.383,1.048
	c0.784,0,1.38-0.17,1.787-0.508c0.407-0.337,0.814-0.84,1.223-1.507c0.242-0.374,0.496-0.56,0.766-0.56
	c0.187,0,0.35,0.07,0.483,0.212c0.133,0.14,0.201,0.306,0.201,0.496c0,0.528-0.381,1.2-1.143,2.019s-1.896,1.229-3.398,1.229
	c-1.618,0-2.871-0.527-3.761-1.583c-0.888-1.056-1.333-2.487-1.333-4.296c0-1.778,0.443-3.196,1.333-4.252
	c0.891-1.057,2.131-1.584,3.721-1.584c1.59,0,2.786,0.529,3.585,1.588c0.799,1.059,1.198,2.199,1.198,3.422
	c0,0.322-0.083,0.604-0.248,0.844C61.124,110.026,60.677,110.145,59.945,110.145z M53.549,108.858h6.153
	c-0.047-1.139-0.346-2.015-0.897-2.624c-0.549-0.613-1.255-0.918-2.114-0.918c-0.827,0-1.528,0.303-2.105,0.906
	C54.011,106.827,53.666,107.707,53.549,108.858z M62.116,114.107v-8.991c0-0.479,0.066-0.795,0.197-0.95
	c0.131-0.154,0.327-0.23,0.589-0.23c0.208,0,0.386,0.066,0.532,0.195c0.148,0.131,0.22,0.457,0.22,0.985v0.865
	c0.496-0.829,0.931-1.378,1.3-1.646c0.369-0.268,0.801-0.4,1.3-0.4c0.523,0,1.009,0.123,1.456,0.369
	c0.445,0.246,0.67,0.545,0.67,0.896c0,0.246-0.08,0.451-0.241,0.617c-0.161,0.165-0.318,0.248-0.473,0.248
	c-0.133,0-0.343-0.053-0.623-0.159s-0.57-0.157-0.867-0.157c-0.766,0-1.333,0.358-1.707,1.077c-0.371,0.717-0.558,1.942-0.558,3.673
	v4.063c0,0.726-0.297,1.087-0.886,1.087c-0.337,0-0.573-0.105-0.706-0.315C62.184,115.121,62.116,114.714,62.116,114.107z
	 M74.752,114.131v-12.484c0-0.492,0.091-0.902,0.278-1.229c0.185-0.326,0.587-0.489,1.204-0.489c0.659,0,1.085,0.062,1.281,0.185
	c0.195,0.123,0.394,0.506,0.596,1.152l3.08,9.609l0.717,2.287l0.787-2.479l3.053-9.354c0.235-0.695,0.422-1.103,0.56-1.224
	c0.138-0.118,0.524-0.178,1.153-0.178c0.638,0,1.031,0.108,1.179,0.322s0.223,0.681,0.223,1.397v12.684
	c0,0.881-0.316,1.318-0.948,1.318c-0.63,0-0.946-0.41-0.946-1.233v-11.968l-3.837,11.557c-0.223,0.681-0.405,1.126-0.551,1.332
	c-0.144,0.207-0.388,0.311-0.731,0.311c-0.377,0-0.648-0.098-0.812-0.29c-0.165-0.192-0.362-0.645-0.591-1.354l-3.799-11.767v11.872
	c0,1.026-0.316,1.539-0.948,1.539C75.068,115.648,74.752,115.145,74.752,114.131z M98.287,113.805
	c-1.196,1.231-2.605,1.846-4.229,1.846c-1.066,0-1.913-0.309-2.534-0.924s-0.931-1.378-0.931-2.287c0-0.893,0.242-1.578,0.725-2.049
	s0.994-0.786,1.537-0.945c0.539-0.158,1.448-0.359,2.724-0.605s2.125-0.457,2.548-0.633c0-1.139-0.191-1.903-0.575-2.298
	c-0.383-0.394-1.005-0.589-1.863-0.589c-1.605,0-2.608,0.518-3.011,1.549c-0.146,0.401-0.286,0.653-0.417,0.754
	c-0.131,0.102-0.289,0.152-0.469,0.152c-0.22,0-0.411-0.076-0.568-0.231c-0.159-0.155-0.238-0.346-0.238-0.57
	c0-0.695,0.38-1.376,1.139-2.04c0.759-0.663,1.906-0.996,3.445-0.996c1.283,0,2.239,0.193,2.871,0.579
	c0.629,0.388,1.035,0.896,1.212,1.53c0.178,0.632,0.267,1.469,0.267,2.513l-0.062,3.525c0,0.583,0.083,1.157,0.248,1.722
	c0.164,0.563,0.246,0.931,0.246,1.106c0,0.183-0.087,0.353-0.263,0.507c-0.176,0.154-0.375,0.233-0.604,0.233
	C98.982,115.648,98.584,115.034,98.287,113.805L98.287,113.805z M98.147,109.539c-0.437,0.197-1.257,0.42-2.463,0.666
	c-1.204,0.246-1.97,0.44-2.296,0.58c-0.325,0.143-0.566,0.363-0.723,0.664c-0.159,0.301-0.237,0.59-0.237,0.865
	c0,0.502,0.18,0.939,0.542,1.313c0.363,0.371,0.863,0.557,1.501,0.557c0.772,0,1.491-0.19,2.156-0.572
	c0.666-0.381,1.083-0.873,1.259-1.475C98.058,111.536,98.147,110.669,98.147,109.539z M109.835,108.23v5.877
	c0,0.606-0.063,1.014-0.191,1.226c-0.127,0.212-0.358,0.315-0.695,0.315c-0.343,0-0.579-0.104-0.71-0.311
	c-0.131-0.209-0.197-0.619-0.197-1.23v-5.34c0-0.853-0.074-1.479-0.221-1.879c-0.146-0.4-0.405-0.721-0.776-0.961
	c-0.371-0.238-0.771-0.357-1.208-0.357c-0.664,0-1.247,0.201-1.747,0.602c-0.5,0.4-0.842,0.876-1.026,1.425
	c-0.185,0.55-0.278,1.53-0.278,2.944v3.568c0,0.711-0.102,1.145-0.307,1.305c-0.206,0.158-0.405,0.236-0.6,0.236
	c-0.337,0-0.568-0.104-0.695-0.311c-0.127-0.208-0.191-0.617-0.191-1.23v-8.686c0-0.576,0.057-0.969,0.172-1.177
	c0.114-0.208,0.345-0.31,0.695-0.31c0.322,0,0.551,0.127,0.685,0.379c0.134,0.256,0.202,0.768,0.202,1.54
	c0.886-1.278,2.014-1.919,3.384-1.919c0.818,0,1.549,0.212,2.196,0.632c0.645,0.422,1.058,0.927,1.238,1.51
	C109.744,106.662,109.835,107.379,109.835,108.23z M121.135,111.241c0.214,0,0.405,0.081,0.574,0.241
	c0.167,0.164,0.252,0.369,0.252,0.621c0,0.311-0.176,0.768-0.532,1.377c-0.356,0.607-0.886,1.121-1.59,1.539
	c-0.704,0.418-1.531,0.627-2.477,0.627c-1.713,0-3.004-0.529-3.873-1.594c-0.869-1.063-1.304-2.477-1.304-4.242
	c0-1.779,0.435-3.206,1.304-4.274s2.133-1.603,3.792-1.603c1.457,0,2.565,0.393,3.329,1.174c0.761,0.785,1.143,1.451,1.143,1.998
	c0,0.225-0.081,0.418-0.242,0.574s-0.35,0.237-0.564,0.237c-0.289,0-0.577-0.25-0.867-0.749c-0.664-1.18-1.59-1.771-2.78-1.771
	c-1,0-1.804,0.393-2.41,1.174c-0.608,0.783-0.912,1.832-0.912,3.148c0,1.396,0.294,2.487,0.882,3.275
	c0.587,0.791,1.389,1.186,2.402,1.186c1.264,0,2.222-0.617,2.881-1.854c0.254-0.484,0.439-0.79,0.549-0.908
	C120.804,111.299,120.946,111.241,121.135,111.241L121.135,111.241z M131.424,108.188v5.899c0,0.471-0.02,0.789-0.055,0.951
	c-0.037,0.162-0.139,0.305-0.304,0.428s-0.354,0.184-0.567,0.184c-0.322,0-0.548-0.107-0.675-0.322
	c-0.128-0.215-0.19-0.627-0.19-1.24v-5.445c0-1.408-0.25-2.29-0.751-2.645c-0.501-0.355-0.992-0.531-1.476-0.531
	c-0.639,0-1.202,0.184-1.691,0.553c-0.49,0.369-0.836,0.833-1.037,1.393c-0.201,0.561-0.303,1.546-0.303,2.96v3.735
	c0,0.717-0.108,1.154-0.327,1.309c-0.218,0.154-0.417,0.232-0.6,0.232c-0.248,0-0.454-0.084-0.619-0.254s-0.246-0.604-0.246-1.309
	v-12.861c0-0.654,0.072-1.078,0.216-1.271s0.36-0.29,0.649-0.29c0.248,0,0.464,0.076,0.651,0.23
	c0.184,0.154,0.275,0.596,0.275,1.327v4.567c0.907-1.236,2.029-1.855,3.362-1.855c0.974,0,1.832,0.32,2.574,0.961
	C131.051,105.536,131.424,106.633,131.424,108.188L131.424,108.188z M142.059,110.145h-6.416c0.034,1.354,0.354,2.379,0.963,3.077
	c0.608,0.697,1.401,1.048,2.383,1.048c0.785,0,1.381-0.17,1.787-0.508c0.407-0.337,0.814-0.84,1.224-1.507
	c0.241-0.374,0.496-0.56,0.765-0.56c0.188,0,0.35,0.07,0.484,0.212c0.133,0.14,0.201,0.306,0.201,0.496
	c0,0.528-0.382,1.2-1.143,2.019c-0.762,0.818-1.896,1.229-3.398,1.229c-1.618,0-2.871-0.527-3.762-1.583
	c-0.889-1.056-1.334-2.487-1.334-4.296c0-1.778,0.443-3.196,1.334-4.252c0.891-1.057,2.131-1.584,3.721-1.584
	s2.786,0.529,3.586,1.588c0.799,1.059,1.197,2.199,1.197,3.422c0,0.322-0.082,0.604-0.248,0.844
	C143.239,110.026,142.789,110.145,142.059,110.145L142.059,110.145z M135.664,108.858h6.152c-0.047-1.139-0.346-2.015-0.896-2.624
	c-0.549-0.613-1.256-0.918-2.113-0.918c-0.828,0-1.529,0.303-2.105,0.906C136.124,106.827,135.778,107.707,135.664,108.858
	L135.664,108.858z M145.359,106.846c0,0.514,0.248,0.91,0.744,1.188c0.496,0.278,1.367,0.561,2.613,0.846
	c1.247,0.287,2.15,0.698,2.705,1.232c0.557,0.534,0.836,1.207,0.836,2.016c0,1.014-0.373,1.855-1.121,2.521
	c-0.748,0.668-1.87,1.002-3.365,1.002c-1.429,0-2.499-0.345-3.214-1.033c-0.714-0.689-1.07-1.375-1.07-2.057
	c0-0.211,0.078-0.395,0.231-0.547c0.154-0.155,0.339-0.232,0.553-0.232c0.344,0,0.619,0.246,0.827,0.738
	c0.496,1.193,1.427,1.791,2.794,1.791c0.764,0,1.369-0.174,1.819-0.521c0.449-0.348,0.674-0.771,0.674-1.27
	c0-0.4-0.136-0.764-0.407-1.092s-0.998-0.646-2.182-0.956c-1.183-0.312-2.012-0.589-2.482-0.831
	c-0.473-0.244-0.869-0.578-1.188-1.01c-0.317-0.428-0.477-0.928-0.477-1.498c0-0.824,0.328-1.563,0.986-2.216
	c0.656-0.653,1.662-0.981,3.017-0.981c1.367,0,2.385,0.31,3.051,0.929c0.667,0.619,1.001,1.208,1.001,1.771
	c0,0.513-0.255,0.77-0.766,0.77c-0.229,0-0.396-0.058-0.505-0.17c-0.106-0.112-0.235-0.337-0.382-0.674
	c-0.381-0.859-1.168-1.287-2.361-1.287c-0.697,0-1.26,0.143-1.688,0.428C145.575,105.988,145.359,106.367,145.359,106.846
	L145.359,106.846z M154.228,104.198v-1.897c0-0.752,0.071-1.236,0.216-1.45s0.367-0.319,0.67-0.319c0.255,0,0.471,0.084,0.645,0.252
	c0.174,0.17,0.264,0.641,0.264,1.414v2.004h0.955c0.738,0,1.107,0.225,1.107,0.674c0,0.457-0.35,0.685-1.047,0.685h-1.016v6.653
	c0,0.807,0.086,1.326,0.26,1.556c0.177,0.227,0.447,0.343,0.816,0.343c0.053,0,0.231-0.021,0.535-0.063
	c0.303-0.043,0.473-0.064,0.513-0.064c0.415,0,0.623,0.221,0.623,0.664c0,0.619-0.675,0.928-2.024,0.928
	c-0.686,0-1.276-0.171-1.772-0.517c-0.496-0.343-0.747-1.245-0.747-2.698v-6.802h-0.674c-0.536,0-0.805-0.228-0.805-0.685
	c0-0.449,0.322-0.674,0.967-0.674h0.515V104.198z M167.021,110.145h-6.414c0.033,1.354,0.354,2.379,0.962,3.077
	c0.608,0.697,1.401,1.048,2.383,1.048c0.784,0,1.38-0.17,1.787-0.508c0.407-0.337,0.814-0.84,1.224-1.507
	c0.242-0.374,0.496-0.56,0.766-0.56c0.186,0,0.35,0.07,0.482,0.212c0.135,0.14,0.202,0.306,0.202,0.496
	c0,0.528-0.382,1.2-1.144,2.019c-0.76,0.818-1.895,1.229-3.398,1.229c-1.617,0-2.87-0.527-3.76-1.583
	c-0.889-1.056-1.334-2.487-1.334-4.296c0-1.778,0.443-3.196,1.334-4.252c0.89-1.057,2.13-1.584,3.721-1.584
	c1.59,0,2.785,0.529,3.584,1.588c0.8,1.059,1.198,2.199,1.198,3.422c0,0.322-0.083,0.604-0.248,0.844
	C168.201,110.026,167.752,110.145,167.021,110.145L167.021,110.145z M160.626,108.858h6.152c-0.047-1.139-0.346-2.015-0.897-2.624
	c-0.549-0.613-1.254-0.918-2.113-0.918c-0.826,0-1.528,0.303-2.105,0.906C161.086,106.827,160.74,107.707,160.626,108.858
	L160.626,108.858z M169.193,114.107v-8.991c0-0.479,0.065-0.795,0.197-0.95c0.131-0.154,0.326-0.23,0.589-0.23
	c0.208,0,0.386,0.066,0.532,0.195c0.148,0.131,0.221,0.457,0.221,0.985v0.865c0.496-0.829,0.931-1.378,1.299-1.646
	c0.369-0.268,0.803-0.4,1.301-0.4c0.523,0,1.009,0.123,1.456,0.369c0.445,0.246,0.67,0.545,0.67,0.896
	c0,0.246-0.081,0.451-0.241,0.617c-0.162,0.165-0.318,0.248-0.473,0.248c-0.135,0-0.344-0.053-0.624-0.159s-0.57-0.157-0.867-0.157
	c-0.765,0-1.333,0.358-1.706,1.077c-0.371,0.717-0.559,1.942-0.559,3.673v4.063c0,0.726-0.297,1.087-0.886,1.087
	c-0.337,0-0.572-0.105-0.706-0.315C169.259,115.121,169.193,114.714,169.193,114.107z M193.832,109.702
	c0.221,0,0.416,0.081,0.584,0.241c0.167,0.164,0.252,0.369,0.252,0.621c0,0.577-0.237,1.291-0.71,2.146
	c-0.474,0.854-1.153,1.556-2.044,2.109c-0.889,0.551-1.914,0.828-3.076,0.828c-2.41,0-4.177-0.786-5.301-2.357
	c-1.125-1.57-1.688-3.449-1.688-5.635c0-2.383,0.643-4.311,1.93-5.783c1.285-1.472,2.938-2.209,4.959-2.209
	c1.184,0,2.217,0.262,3.105,0.791c0.889,0.527,1.563,1.17,2.021,1.929c0.455,0.759,0.684,1.329,0.684,1.708
	c0,0.24-0.072,0.45-0.216,0.635c-0.144,0.182-0.341,0.273-0.589,0.273c-0.385,0-0.768-0.384-1.158-1.149
	c-0.391-0.765-0.902-1.378-1.545-1.834s-1.381-0.685-2.219-0.685c-1.435,0-2.617,0.547-3.551,1.639
	c-0.93,1.094-1.396,2.684-1.396,4.771c0,2.046,0.443,3.598,1.331,4.653c0.888,1.059,2.038,1.588,3.445,1.588
	c2.104,0,3.534-1.132,4.284-3.395C193.144,109.996,193.443,109.702,193.832,109.702L193.832,109.702z M200.585,103.936
	c1.524,0,2.741,0.509,3.655,1.524s1.369,2.462,1.369,4.331c0,1.857-0.457,3.297-1.373,4.32c-0.916,1.024-2.133,1.537-3.651,1.537
	c-1.558,0-2.786-0.525-3.687-1.572c-0.898-1.05-1.349-2.406-1.349-4.072c0-1.93,0.44-3.422,1.325-4.48
	S198.995,103.936,200.585,103.936z M200.606,114.184c0.985,0,1.762-0.392,2.325-1.172c0.564-0.782,0.846-1.854,0.846-3.215
	c0-1.373-0.283-2.45-0.855-3.229c-0.57-0.777-1.342-1.168-2.315-1.168c-0.995,0-1.778,0.396-2.355,1.186s-0.867,1.859-0.867,3.214
	s0.288,2.423,0.867,3.208C198.826,113.789,199.611,114.184,200.606,114.184z M207.959,111.449v-5.964
	c0-0.632,0.072-1.05,0.216-1.251c0.145-0.199,0.374-0.301,0.689-0.301c0.329,0,0.56,0.102,0.69,0.307
	c0.132,0.204,0.195,0.619,0.195,1.247v5.241c0,0.761,0.06,1.35,0.176,1.768c0.119,0.42,0.378,0.776,0.776,1.073
	s0.833,0.442,1.304,0.442c0.639,0,1.204-0.192,1.703-0.574c0.496-0.383,0.842-0.848,1.036-1.395
	c0.195-0.545,0.292-1.563,0.292-3.049v-3.509c0-0.619,0.07-1.032,0.209-1.24c0.137-0.208,0.364-0.312,0.678-0.312
	c0.337,0,0.572,0.102,0.706,0.305c0.134,0.204,0.201,0.619,0.201,1.245v8.665c0,0.591-0.065,0.987-0.196,1.193
	c-0.132,0.203-0.354,0.307-0.67,0.307c-0.311,0-0.531-0.104-0.664-0.311c-0.134-0.209-0.201-0.754-0.201-1.639
	c-0.914,1.301-2.07,1.949-3.465,1.949c-1.041,0-1.912-0.311-2.618-0.935c-0.71-0.621-1.062-1.711-1.062-3.265H207.959z
	 M228.757,108.23v5.877c0,0.606-0.063,1.014-0.19,1.226s-0.359,0.315-0.695,0.315c-0.344,0-0.579-0.104-0.711-0.311
	c-0.131-0.209-0.197-0.619-0.197-1.23v-5.34c0-0.853-0.074-1.479-0.221-1.879c-0.146-0.4-0.404-0.721-0.775-0.961
	c-0.371-0.238-0.771-0.357-1.209-0.357c-0.663,0-1.246,0.201-1.746,0.602s-0.842,0.876-1.026,1.425
	c-0.185,0.55-0.278,1.53-0.278,2.944v3.568c0,0.711-0.102,1.145-0.307,1.305c-0.206,0.158-0.405,0.236-0.6,0.236
	c-0.338,0-0.568-0.104-0.695-0.311c-0.128-0.208-0.191-0.617-0.191-1.23v-8.686c0-0.576,0.057-0.969,0.172-1.177
	c0.114-0.208,0.346-0.31,0.695-0.31c0.322,0,0.551,0.127,0.685,0.379c0.134,0.256,0.202,0.768,0.202,1.54
	c0.886-1.278,2.014-1.919,3.383-1.919c0.818,0,1.55,0.212,2.197,0.632c0.645,0.422,1.057,0.927,1.237,1.51s0.255,1.3,0.255,2.151
	H228.757z M240.057,111.241c0.215,0,0.405,0.081,0.574,0.241c0.168,0.164,0.253,0.369,0.253,0.621c0,0.311-0.177,0.768-0.532,1.377
	c-0.356,0.607-0.887,1.121-1.59,1.539c-0.704,0.418-1.531,0.627-2.477,0.627c-1.713,0-3.004-0.529-3.873-1.594
	c-0.869-1.063-1.305-2.477-1.305-4.242c0-1.779,0.436-3.206,1.305-4.274s2.133-1.603,3.793-1.603c1.456,0,2.564,0.393,3.328,1.174
	c0.762,0.785,1.143,1.451,1.143,1.998c0,0.225-0.08,0.418-0.242,0.574c-0.16,0.156-0.35,0.237-0.563,0.237
	c-0.288,0-0.577-0.25-0.867-0.749c-0.663-1.18-1.59-1.771-2.779-1.771c-1.001,0-1.804,0.393-2.411,1.174
	c-0.607,0.783-0.911,1.832-0.911,3.148c0,1.396,0.295,2.487,0.882,3.275c0.588,0.791,1.389,1.186,2.402,1.186
	c1.264,0,2.222-0.617,2.881-1.854c0.255-0.484,0.439-0.79,0.549-0.908c0.111-0.119,0.276-0.177,0.445-0.177H240.057z
	 M242.453,99.981c0.275,0,0.508,0.103,0.699,0.308c0.19,0.205,0.286,0.445,0.286,0.727c0,0.297-0.096,0.545-0.286,0.751
	c-0.191,0.206-0.424,0.306-0.699,0.306c-0.276,0-0.512-0.102-0.707-0.306s-0.292-0.454-0.292-0.751c0-0.279,0.097-0.523,0.292-0.727
	s0.445-0.308,0.721-0.308H242.453z M243.364,105.467v8.643c0,0.584-0.074,0.986-0.221,1.209c-0.148,0.223-0.378,0.332-0.685,0.332
	c-0.275,0-0.494-0.095-0.66-0.285c-0.164-0.189-0.245-0.609-0.245-1.256v-8.643c0-0.705,0.098-1.135,0.297-1.294
	c0.197-0.159,0.407-0.237,0.63-0.237c0.35,0,0.582,0.107,0.703,0.326c0.106,0.219,0.17,0.619,0.17,1.205H243.364z M246.734,101.227
	v12.885c0,0.705-0.102,1.135-0.303,1.296s-0.402,0.243-0.604,0.243c-0.248,0-0.459-0.082-0.63-0.243
	c-0.172-0.161-0.257-0.594-0.257-1.296v-12.885c0-0.626,0.07-1.043,0.212-1.249s0.366-0.31,0.675-0.31
	c0.315,0,0.545,0.104,0.688,0.316c0.148,0.207,0.212,0.623,0.212,1.242H246.734z"/>
</svg>
